# xmcd
#
# Track frame offsets: 
#        150
#        15690
#        29034
#        41780
#        59047
#        84886
#        101118
#        121995
#        138527
#        149490
#        171853
#        193534
#        209853
#        214342
#        227719
#        239425
#        268887
#        277521
#
# Disc length: 3842 seconds
#
# Revision: 2
# Processed by: cddbd v1.5.2PL0 Copyright (c) Steve Scherf et al.
# Submitted via: ExactAudioCopy v0.99pb3
#
DISCID=1d0f0012
DTITLE=Dodo Hug - Via Mala
DYEAR=2006
DGENRE=Chanson
TTITLE0=Ohne Krimi geht der Jimmy
TTITLE1=Die Kindsmörderin
TTITLE2=Le Poinconneur des Lilas
TTITLE3=Stillepenn Schlufflied
TTITLE4=A mym Rhy
TTITLE5=Bai dem Taich
TTITLE6=Ballerina Bandita
TTITLE7=Bärnhard Matter
TTITLE8=Tauben Vergiften im Park
TTITLE9=Bruederhärz
TTITLE10=Clara
TTITLE11=Grosmueter Schlangechöchi
TTITLE12=Bobo Léon
TTITLE13=Morti di Sciruni
TTITLE14=Die Kleptomanin
TTITLE15=Buenas Tardes Amigo
TTITLE16=Die Verdächtige
TTITLE17=I Hold Your Hand In Mine
EXTD=
EXTT0=
EXTT1=
EXTT2=
EXTT3=
EXTT4=
EXTT5=
EXTT6=
EXTT7=
EXTT8=
EXTT9=
EXTT10=
EXTT11=
EXTT12=
EXTT13=
EXTT14=
EXTT15=
EXTT16=
EXTT17=
PLAYORDER=
